<?xml version="1.0" encoding="UTF-8" standalone="no"?>
<!DOCTYPE svg PUBLIC "-//W3C//DTD SVG 1.1//EN" "http://www.w3.org/Graphics/SVG/1.1/DTD/svg11.dtd">
<svg xmlns="http://www.w3.org/2000/svg" version="1.1" viewBox="0.00 0.00 366.00 97.00">
<path fill="#62be01" d="
  M 29.87 69.58
  L 33.78 69.47
  Q 34.23 69.45 34.45 69.84
  L 38.43 76.70
  A 1.66 1.66 0.0 0 1 36.99 79.20
  L 16.09 79.18
  Q 12.32 79.18 14.21 75.91
  L 51.00 12.39
  A 0.52 0.52 0.0 0 1 51.90 12.39
  Q 58.20 23.16 64.42 34.07
  C 65.86 36.59 62.53 41.23 61.00 43.14
  A 1.75 1.74 -40.0 0 1 58.11 42.89
  L 52.06 31.87
  A 0.74 0.73 -44.3 0 0 50.78 31.86
  L 29.45 68.87
  A 0.47 0.47 0.0 0 0 29.87 69.58
  Z"
/>
<path fill="#fefefe" d="
  M 119.85 38.48
  Q 114.23 46.31 108.42 54.07
  C 105.42 58.06 104.24 60.64 99.18 58.97
  Q 98.66 58.79 98.99 58.35
  Q 106.96 47.48 114.95 36.65
  C 118.34 32.05 122.25 32.27 125.47 36.68
  Q 133.42 47.53 141.42 58.33
  Q 141.79 58.82 141.21 59.02
  C 137.63 60.21 135.70 59.23 133.52 56.23
  Q 127.05 47.28 120.43 38.47
  Q 120.14 38.08 119.85 38.48
  Z"
/>
<path fill="#fefefe" d="
  M 145.18 33.55
  A 1.35 1.35 0.0 0 1 146.49 34.89
  C 146.53 43.81 143.45 54.01 156.55 54.01
  Q 166.10 54.01 175.65 53.98
  C 178.93 53.98 180.70 55.42 179.57 58.79
  Q 179.42 59.23 178.95 59.24
  Q 167.09 59.29 155.23 59.22
  C 139.03 59.14 141.75 44.91 141.75 34.07
  Q 141.75 33.46 142.36 33.48
  L 145.18 33.55
  Z"
/>
<path fill="#fefefe" d="
  M 184.61 56.66
  C 178.17 51.54 179.96 41.29 180.02 34.01
  Q 180.02 33.35 180.68 33.41
  L 183.99 33.72
  A 0.88 0.88 0.0 0 1 184.78 34.62
  C 184.56 43.32 182.38 54.07 194.11 54.02
  Q 205.16 53.97 216.14 54.01
  A 1.30 1.28 71.6 0 1 217.18 54.54
  Q 218.51 56.32 217.92 58.70
  Q 217.80 59.23 217.25 59.23
  Q 203.54 59.30 189.82 59.21
  Q 187.80 59.19 184.61 56.66
  Z"
/>
<path fill="#fefefe" d="
  M 258.50 52.81
  Q 259.24 51.14 258.15 49.70
  A 1.08 1.08 0.0 0 0 257.36 49.28
  C 247.57 48.62 237.56 49.00 227.75 49.01
  C 218.93 49.02 218.18 33.53 229.73 33.51
  Q 246.17 33.48 262.61 33.51
  Q 263.10 33.51 263.23 33.99
  Q 263.81 36.09 262.75 38.03
  A 1.17 1.17 0.0 0 1 261.85 38.64
  C 253.91 39.63 244.02 38.68 230.27 38.77
  C 227.91 38.79 225.64 39.45 226.05 42.26
  A 2.30 2.30 0.0 0 0 228.32 44.24
  Q 242.19 44.28 256.50 44.23
  C 265.97 44.20 266.81 59.24 255.09 59.25
  Q 238.69 59.25 222.30 59.25
  Q 221.85 59.25 221.70 58.82
  C 220.39 55.11 222.44 53.97 225.76 53.98
  Q 241.19 54.02 256.70 53.99
  A 1.96 1.96 0.0 0 0 258.50 52.81
  Z"
/>
<path fill="#fefefe" d="
  M 266.33 58.27
  C 271.62 51.30 276.86 44.33 281.97 37.22
  C 285.86 31.82 289.73 32.16 293.40 37.29
  Q 300.88 47.78 308.71 58.05
  A 0.58 0.58 0.0 0 1 308.46 58.94
  Q 304.31 60.58 301.71 57.11
  Q 294.77 47.84 287.98 38.68
  A 0.46 0.46 0.0 0 0 287.24 38.68
  Q 280.68 47.50 274.06 56.42
  C 271.96 59.26 269.95 60.15 266.57 59.04
  A 0.50 0.49 27.8 0 1 266.33 58.27
  Z"
/>
<path fill="#fefefe" d="
  M 350.73 53.69
  Q 350.79 45.57 350.75 37.23
  C 350.74 34.10 352.22 32.57 355.36 33.71
  Q 355.75 33.86 355.75 34.27
  L 355.75 56.07
  A 3.98 3.98 0.0 0 1 349.58 59.39
  L 318.57 38.95
  A 0.37 0.37 0.0 0 0 318.00 39.26
  Q 318.04 47.64 317.85 56.20
  Q 317.76 60.28 313.65 59.33
  A 1.15 1.15 0.0 0 1 312.75 58.21
  L 312.75 35.99
  A 2.46 2.46 0.0 0 1 314.84 33.56
  C 316.86 33.25 318.95 33.33 320.79 34.57
  Q 335.28 44.32 350.08 54.03
  A 0.42 0.42 0.0 0 0 350.73 53.69
  Z"
/>
<path fill="#008efc" d="
  M 71.20 78.78
  L 62.79 78.90
  A 1.02 1.02 0.0 0 1 61.89 78.39
  L 46.39 51.45
  A 1.83 1.81 -44.7 0 1 46.41 49.61
  L 51.16 41.71
  Q 51.46 41.21 51.75 41.71
  L 72.20 77.00
  A 1.19 1.18 74.5 0 1 71.20 78.78
  Z"
/>
<path fill="#008efc" d="
  M 63.13 49.98
  L 67.75 41.69
  Q 68.19 40.89 68.65 41.68
  L 88.88 76.69
  A 1.35 1.35 0.0 0 1 87.74 78.71
  L 79.61 78.85
  A 1.01 1.00 -15.0 0 1 78.74 78.35
  L 63.14 51.16
  Q 62.80 50.57 63.13 49.98
  Z"
/>
<path fill="#008efc" d="
  M 42.69 55.99
  Q 42.95 55.52 43.22 55.99
  L 55.28 77.03
  A 1.15 1.15 0.0 0 1 54.28 78.75
  L 45.82 78.75
  Q 45.30 78.75 45.04 78.30
  L 38.20 66.59
  A 2.59 2.58 -45.6 0 1 38.18 64.03
  L 42.69 55.99
  Z"
/>
<path fill="#4fa707" fill-opacity="0.996" d="
  M 105.48 75.99
  Q 105.64 76.94 106.46 77.19
  C 107.49 77.50 108.43 76.67 109.86 77.25
  A 0.95 0.94 -32.4 0 1 109.45 79.07
  L 104.39 78.81
  Q 103.75 78.78 103.75 78.14
  L 103.75 70.84
  Q 103.75 70.18 104.41 70.15
  L 108.39 69.96
  Q 108.84 69.93 109.26 70.11
  Q 110.46 70.63 110.24 71.52
  Q 110.09 72.11 109.49 72.04
  Q 107.80 71.86 106.11 72.14
  A 0.81 0.81 0.0 0 0 106.24 73.75
  L 109.17 73.75
  Q 109.71 73.75 109.70 74.28
  Q 109.70 75.34 108.75 75.29
  Q 107.10 75.20 106.02 75.29
  A 0.60 0.60 0.0 0 0 105.48 75.99
  Z"
/>
<path fill="#4fa707" fill-opacity="0.996" d="
  M 122.04 74.69
  L 121.87 71.30
  A 1.13 1.13 0.0 0 1 122.47 70.24
  Q 123.28 69.81 123.77 70.47
  Q 124.05 70.86 124.01 71.61
  Q 123.81 74.95 123.71 77.88
  A 0.93 0.93 0.0 0 1 122.05 78.43
  L 118.46 73.93
  A 0.40 0.39 -64.3 0 0 117.76 74.18
  L 117.74 78.03
  A 0.82 0.82 0.0 0 1 116.19 78.42
  Q 115.95 77.96 115.95 77.25
  Q 115.97 74.00 116.02 70.99
  A 0.91 0.90 25.7 0 1 117.62 70.43
  L 121.37 74.96
  Q 122.10 75.83 122.04 74.69
  Z"
/>
<path fill="#4fa707" fill-opacity="0.996" d="
  M 146.20 77.31
  L 149.87 77.31
  A 0.60 0.60 0.0 0 1 150.47 77.86
  Q 150.57 78.88 149.81 78.93
  Q 148.61 79.01 144.23 78.75
  Q 143.75 78.72 143.75 78.24
  L 143.75 70.75
  Q 143.75 70.27 144.23 70.19
  Q 146.83 69.73 149.42 70.19
  A 0.79 0.79 0.0 0 1 149.28 71.75
  L 146.20 71.75
  Q 145.43 71.75 145.54 72.51
  L 145.71 73.65
  Q 145.81 74.30 146.43 74.05
  Q 147.65 73.55 149.01 73.82
  A 0.71 0.71 0.0 0 1 148.88 75.23
  L 145.94 75.26
  Q 145.16 75.27 145.33 76.03
  L 145.49 76.74
  Q 145.61 77.31 146.20 77.31
  Z"
/>
<path fill="#4fa707" fill-opacity="0.996" d="
  M 161.65 74.85
  A 0.39 0.38 18.0 0 0 162.32 74.51
  Q 161.88 72.71 162.07 70.86
  A 1.09 1.09 0.0 0 1 164.25 70.97
  L 164.24 78.05
  A 0.94 0.94 0.0 0 1 162.60 78.67
  L 159.50 75.19
  Q 158.15 73.68 158.26 75.70
  Q 158.41 78.52 157.28 79.06
  A 0.66 0.66 0.0 0 1 156.33 78.49
  L 156.11 71.02
  A 1.00 1.00 0.0 0 1 157.88 70.34
  L 161.65 74.85
  Z"
/>
<path fill="#4fa707" fill-opacity="0.996" d="
  M 173.24 73.75
  L 175.44 73.75
  A 0.57 0.56 -1.0 0 0 176.01 73.17
  Q 175.98 72.06 176.02 70.95
  A 1.12 1.12 0.0 0 1 178.25 70.99
  L 178.25 78.27
  A 0.99 0.98 -49.0 0 1 176.29 78.41
  L 175.94 75.81
  Q 175.86 75.25 175.30 75.25
  L 172.88 75.25
  Q 172.27 75.25 172.26 75.87
  L 172.23 78.19
  A 0.95 0.95 0.0 0 1 170.33 78.19
  L 170.21 70.77
  A 0.85 0.84 10.5 0 1 171.37 69.98
  Q 172.74 70.54 172.20 72.36
  Q 171.79 73.75 173.24 73.75
  Z"
/>
<path fill="#4fa707" fill-opacity="0.996" d="
  M 136.64 74.02
  A 0.61 0.60 -22.1 0 1 137.46 74.36
  C 139.57 80.19 131.56 79.82 130.08 76.50
  C 127.86 71.56 132.53 69.67 136.87 70.56
  A 0.98 0.75 46.1 0 1 137.07 72.29
  Q 135.85 72.17 134.90 71.67
  Q 134.49 71.45 134.03 71.55
  C 129.38 72.58 131.03 78.40 135.47 77.13
  A 0.53 0.51 73.7 0 0 135.82 76.47
  Q 135.23 74.68 136.64 74.02
  Z"
/>
<path fill="#4fa707" fill-opacity="0.996" d="
  M 184.64 78.79
  A 0.78 0.78 0.0 0 1 183.50 77.81
  L 186.89 70.75
  A 1.12 1.12 0.0 0 1 188.91 70.75
  L 192.36 77.94
  A 0.82 0.82 0.0 0 1 190.90 78.69
  Q 189.56 76.25 186.39 76.98
  Q 185.93 77.08 185.73 77.51
  Q 185.34 78.31 184.64 78.79
  Z
  M 187.72 72.74
  Q 186.64 74.19 186.70 74.69
  A 1.16 1.16 0.0 0 0 189.01 74.62
  Q 189.07 73.58 188.19 72.71
  Q 187.93 72.45 187.72 72.74
  Z"
/>
<path fill="#4fa707" fill-opacity="0.996" d="
  M 198.50 70.43
  C 202.18 69.50 206.50 70.81 203.89 75.47
  Q 203.21 76.68 204.68 77.83
  A 0.52 0.52 0.0 0 1 204.27 78.75
  L 203.51 78.62
  Q 202.90 78.52 202.73 77.92
  Q 202.16 75.82 199.93 76.29
  Q 199.56 76.36 199.53 76.74
  L 199.42 78.57
  A 1.06 0.68 60.0 0 1 197.83 77.75
  L 198.05 70.99
  Q 198.07 70.54 198.50 70.43
  Z
  M 203.2271 72.8937
  A 1.31 1.31 0.0 0 0 201.9731 71.5300
  L 200.6143 71.4731
  A 1.31 1.31 0.0 0 0 199.2506 72.7271
  L 199.2129 73.6263
  A 1.31 1.31 0.0 0 0 200.4669 74.9900
  L 201.8257 75.0469
  A 1.31 1.31 0.0 0 0 203.1894 73.7929
  L 203.2271 72.8937
  Z"
/>
<path fill="#4fa707" fill-opacity="0.996" d="
  M 225.50 78.52
  C 224.55 75.72 220.68 76.48 219.47 78.73
  A 0.60 0.60 0.0 0 1 218.68 78.98
  Q 218.06 78.68 218.32 78.03
  Q 219.82 74.37 221.56 70.83
  A 1.12 1.12 0.0 0 1 223.56 70.82
  Q 225.12 73.94 226.62 77.55
  Q 226.89 78.20 226.70 78.60
  A 0.65 0.65 0.0 0 1 225.50 78.52
  Z
  M 222.90 72.82
  A 0.32 0.32 0.0 0 0 222.32 72.83
  L 221.35 75.05
  A 0.32 0.32 0.0 0 0 221.65 75.50
  L 223.66 75.50
  A 0.32 0.32 0.0 0 0 223.95 75.04
  L 222.90 72.82
  Z"
/>
<rect fill="#4fa707" fill-opacity="0.996" x="-0.87" y="-3.51" transform="translate(211.87,75.25) rotate(0.1)" width="1.74" height="7.02" rx="0.72"/>
</svg>
