<?xml version="1.0" encoding="UTF-8" standalone="no"?>
<!DOCTYPE svg PUBLIC "-//W3C//DTD SVG 1.1//EN" "http://www.w3.org/Graphics/SVG/1.1/DTD/svg11.dtd">
<svg xmlns="http://www.w3.org/2000/svg" version="1.1" viewBox="0.00 0.00 487.00 125.00">
<path fill="#008efc" d="
  M 34.69 96.81
  C 37.01 97.33 40.24 96.06 41.75 98.18
  Q 44.83 102.45 47.32 107.66
  A 2.00 2.00 0.0 0 1 45.49 110.52
  Q 30.50 110.38 14.81 110.73
  C 11.69 110.81 11.49 108.45 12.72 106.26
  Q 38.46 60.39 65.67 15.38
  Q 65.99 14.85 66.14 14.74
  Q 66.77 14.28 67.16 14.95
  Q 75.68 29.46 83.79 43.69
  C 85.64 46.94 86.54 48.26 84.53 51.90
  Q 82.38 55.80 79.97 59.06
  A 2.09 2.08 -41.8 0 1 76.49 58.87
  L 66.88 42.26
  A 0.77 0.77 0.0 0 0 65.54 42.26
  L 34.40 96.13
  A 0.46 0.46 0.0 0 0 34.69 96.81
  Z"
/>
<path fill="#ffffff" d="
  M 196.15 77.51
  Q 198.23 80.44 197.14 84.05
  Q 196.99 84.54 196.46 84.55
  Q 175.57 84.59 154.68 84.50
  Q 148.40 84.48 145.17 83.10
  C 130.42 76.83 130.96 52.83 146.35 47.63
  Q 149.55 46.55 157.38 46.52
  Q 176.92 46.45 196.47 46.52
  A 0.74 0.73 -7.8 0 1 197.18 47.05
  Q 198.29 50.80 195.92 53.83
  A 1.07 1.07 0.0 0 1 195.07 54.25
  Q 175.76 54.26 156.50 54.24
  Q 150.17 54.23 147.23 55.64
  C 140.21 59.02 139.67 71.13 146.88 75.14
  Q 149.28 76.48 154.02 76.48
  Q 174.36 76.52 194.18 76.49
  A 2.41 2.41 0.0 0 1 196.15 77.51
  Z"
/>
<path fill="#ffffff" d="
  M 290.38 84.37
  C 270.65 83.57 267.37 54.66 284.30 48.01
  Q 288.08 46.53 296.60 46.51
  Q 315.93 46.48 335.39 46.51
  Q 335.99 46.51 336.10 47.09
  C 336.77 50.37 336.54 54.22 332.08 54.23
  Q 311.79 54.27 291.51 54.25
  C 277.26 54.23 275.91 76.45 293.17 76.49
  Q 312.17 76.53 331.15 76.48
  C 335.81 76.47 337.41 79.82 335.95 84.02
  Q 335.79 84.48 335.31 84.48
  C 320.40 84.53 305.25 84.97 290.38 84.37
  Z"
/>
<path fill="#ffffff" d="
  M 253.76 69.09
  A 0.54 0.53 -22.5 0 0 253.36 70.05
  Q 259.54 74.65 265.26 79.45
  C 266.60 80.57 268.52 81.39 267.77 83.52
  Q 267.59 84.03 267.06 84.18
  C 260.60 86.00 258.18 83.34 252.69 78.96
  C 248.27 75.43 242.79 69.49 236.94 69.40
  Q 224.96 69.20 213.12 69.25
  A 0.86 0.85 -0.0 0 0 212.27 70.09
  C 212.20 74.53 214.74 87.76 205.36 84.24
  Q 205.00 84.10 205.00 83.72
  L 205.00 65.53
  A 3.28 3.28 0.0 0 1 208.28 62.25
  Q 231.76 62.25 255.48 62.24
  C 262.84 62.24 261.68 54.28 255.20 54.27
  Q 231.35 54.23 207.50 54.25
  C 204.81 54.26 204.90 49.06 205.00 47.36
  Q 205.04 46.75 205.65 46.75
  Q 230.49 46.76 255.29 46.73
  C 272.52 46.72 271.86 71.68 253.76 69.09
  Z"
/>
<path fill="#ffffff" d="
  M 404.4122 66.8351
  A 17.63 17.63 0.0 0 1 386.8129 84.4958
  L 359.1330 84.5441
  A 17.63 17.63 0.0 0 1 341.4722 66.9449
  L 341.4678 64.4249
  A 17.63 17.63 0.0 0 1 359.0671 46.7642
  L 386.7470 46.7159
  A 17.63 17.63 0.0 0 1 404.4078 64.3151
  L 404.4122 66.8351
  Z
  M 397.25 64.88
  A 10.37 10.37 0.0 0 0 386.88 54.51
  L 358.90 54.51
  A 10.37 10.37 0.0 0 0 348.53 64.88
  L 348.53 66.14
  A 10.37 10.37 0.0 0 0 358.90 76.51
  L 386.88 76.51
  A 10.37 10.37 0.0 0 0 397.25 66.14
  L 397.25 64.88
  Z"
/>
<path fill="#ffffff" d="
  M 465.47 76.91
  Q 465.56 65.23 465.48 53.52
  C 465.45 49.05 466.51 45.34 471.99 47.00
  A 1.37 1.36 -81.9 0 1 472.96 48.30
  Q 473.06 64.76 472.95 80.93
  C 472.94 83.15 471.60 84.13 469.51 84.50
  Q 464.48 85.37 460.28 82.51
  Q 439.21 68.17 417.83 54.28
  A 0.54 0.54 0.0 0 0 417.00 54.74
  L 417.00 82.51
  A 1.36 1.35 76.2 0 1 416.28 83.71
  Q 413.53 85.16 410.33 84.31
  Q 410.01 84.22 410.01 83.88
  Q 409.96 67.18 410.09 50.51
  C 410.13 45.60 416.67 46.29 419.44 47.32
  Q 420.39 47.68 425.08 50.72
  Q 445.21 63.74 465.10 77.10
  Q 465.47 77.36 465.47 76.91
  Z"
/>
<path fill="#62be01" d="
  M 107.53 110.77
  A 2.05 2.01 -14.6 0 1 105.76 109.75
  L 83.22 70.56
  A 2.29 2.28 44.9 0 1 83.21 68.28
  L 89.81 56.55
  A 0.82 0.82 0.0 0 1 91.23 56.54
  L 120.58 107.50
  A 2.14 2.14 0.0 0 1 118.74 110.71
  L 107.53 110.77
  Z"
/>
<path fill="#62be01" d="
  M 82.62 110.46
  A 1.83 1.82 -11.6 0 1 81.23 109.55
  L 58.50 70.03
  Q 58.20 69.49 58.51 68.96
  L 65.62 56.69
  A 0.75 0.74 -44.9 0 1 66.91 56.69
  L 96.12 107.42
  A 1.95 1.95 0.0 0 1 94.70 110.33
  Q 88.64 111.16 82.62 110.46
  Z"
/>
<path fill="#ffffff" d="
  M 191.37 68.04
  A 0.42 0.42 0.0 0 1 190.95 68.46
  L 153.43 68.59
  A 3.70 3.49 -0.2 0 1 149.72 65.11
  L 149.72 65.05
  A 3.70 3.49 -0.2 0 1 153.41 61.55
  L 190.93 61.42
  A 0.42 0.42 0.0 0 1 191.35 61.84
  L 191.37 68.04
  Z"
/>
<path fill="#62be01" d="
  M 72.54 108.96
  A 0.15 0.15 0.0 0 1 72.49 109.16
  L 72.43 109.20
  A 13.80 11.71 -29.8 0 1 54.63 105.89
  L 48.54 95.25
  A 13.80 11.71 -29.8 0 1 54.70 78.23
  L 54.76 78.20
  A 0.15 0.15 0.0 0 1 54.96 78.26
  L 72.54 108.96
  Z"
/>
<path fill="#008efc" d="
  M 260.75 106.50
  L 256.30 106.50
  A 0.95 0.92 -67.8 0 0 255.62 106.80
  L 253.33 109.25
  A 0.67 0.67 0.0 0 1 252.23 108.53
  L 257.06 97.51
  A 1.36 1.36 0.0 0 1 259.55 97.50
  L 264.43 108.33
  A 0.73 0.73 0.0 0 1 263.54 109.32
  Q 261.90 108.77 261.45 107.04
  A 0.74 0.72 82.1 0 0 260.75 106.50
  Z
  M 256.33 104.06
  A 0.49 0.49 0.0 0 0 256.79 104.73
  L 259.69 104.70
  A 0.49 0.49 0.0 0 0 260.13 104.01
  L 258.64 100.56
  A 0.49 0.49 0.0 0 0 257.74 100.57
  L 256.33 104.06
  Z"
/>
<path fill="#008efc" d="
  M 142.13 107.50
  L 147.68 107.50
  Q 148.29 107.50 148.41 108.10
  L 148.49 108.51
  A 0.58 0.58 0.0 0 1 147.94 109.20
  L 140.10 109.37
  A 0.59 0.59 0.0 0 1 139.50 108.78
  L 139.50 97.76
  A 0.66 0.66 0.0 0 1 140.21 97.10
  Q 143.52 97.34 147.03 97.27
  Q 147.48 97.26 147.80 97.47
  Q 148.28 97.77 148.36 98.06
  A 1.15 1.11 -8.4 0 1 147.25 99.50
  L 142.26 99.50
  A 0.85 0.85 0.0 0 0 141.51 99.95
  Q 140.64 101.66 142.45 102.49
  A 0.87 0.85 -40.8 0 0 143.07 102.53
  Q 144.92 101.98 146.81 102.43
  A 0.82 0.82 0.0 0 1 146.81 104.02
  Q 144.62 104.54 142.52 103.95
  Q 141.66 103.71 141.61 104.60
  L 141.48 106.81
  Q 141.44 107.50 142.13 107.50
  Z"
/>
<path fill="#008efc" d="
  M 158.90 102.08
  L 159.17 108.47
  A 0.73 0.72 -2.7 0 1 158.47 109.23
  L 157.64 109.26
  Q 157.00 109.28 157.00 108.64
  L 157.00 97.74
  A 0.76 0.76 0.0 0 1 157.89 96.99
  Q 158.56 97.12 159.08 97.88
  Q 161.64 101.62 164.91 104.73
  Q 165.52 105.31 165.46 104.47
  L 165.00 97.95
  Q 164.96 97.39 165.50 97.26
  L 166.76 96.95
  Q 167.50 96.76 167.50 97.53
  L 167.50 108.28
  A 1.17 1.17 0.0 0 1 165.42 109.01
  L 159.62 101.81
  A 0.40 0.40 0.0 0 0 158.90 102.08
  Z"
/>
<path fill="#008efc" d="
  M 185.48 100.08
  C 177.79 96.18 174.71 107.58 183.59 107.24
  A 0.98 0.97 14.2 0 0 184.39 106.77
  Q 185.14 105.54 184.56 104.04
  Q 184.30 103.37 184.99 103.21
  L 186.05 102.97
  Q 186.65 102.83 186.87 103.41
  C 188.49 107.62 185.69 109.65 181.88 109.41
  C 172.44 108.84 174.43 94.55 185.15 97.61
  Q 186.49 97.99 186.84 98.78
  A 1.00 1.00 0.0 0 1 185.48 100.08
  Z"
/>
<path fill="#008efc" d="
  M 199.01 107.40
  Q 201.03 107.72 203.65 107.51
  Q 204.43 107.45 204.75 107.79
  Q 205.01 108.06 205.01 108.51
  A 0.69 0.68 -1.3 0 1 204.34 109.20
  L 196.60 109.37
  A 0.59 0.59 0.0 0 1 196.00 108.78
  L 196.00 97.90
  Q 196.00 97.29 196.60 97.26
  L 203.89 96.92
  A 0.87 0.87 0.0 0 1 204.79 97.93
  L 204.59 99.06
  A 0.64 0.62 6.5 0 1 203.92 99.58
  L 199.03 99.19
  A 0.75 0.75 0.0 0 0 198.22 99.91
  L 198.15 101.70
  A 0.65 0.64 0.4 0 0 198.82 102.37
  L 202.96 102.25
  A 0.94 0.93 38.3 0 1 203.18 104.10
  Q 201.28 104.48 199.18 104.17
  A 1.70 1.53 50.9 0 0 199.01 107.40
  Z"
/>
<path fill="#008efc" d="
  M 215.84 102.58
  Q 216.03 104.96 216.23 107.65
  Q 216.29 108.39 216.00 108.79
  Q 215.49 109.50 214.49 109.15
  A 1.10 1.09 9.9 0 1 213.76 108.12
  L 213.75 97.94
  A 1.02 1.01 25.3 0 1 215.55 97.30
  L 220.81 103.75
  Q 222.31 105.58 222.14 103.22
  L 221.77 98.22
  Q 221.71 97.54 222.36 97.34
  Q 223.52 96.97 224.16 97.42
  Q 224.67 97.78 224.62 98.86
  Q 224.41 103.57 224.52 108.33
  A 1.12 1.12 0.0 0 1 222.54 109.08
  L 216.70 102.22
  A 0.49 0.49 0.0 0 0 215.84 102.58
  Z"
/>
<path fill="#008efc" d="
  M 241.38 104.32
  L 236.37 104.10
  A 0.52 0.52 0.0 0 0 235.82 104.64
  L 235.97 108.53
  A 0.57 0.57 0.0 0 1 235.44 109.12
  L 234.49 109.20
  A 0.69 0.69 0.0 0 1 233.75 108.51
  L 233.75 97.93
  Q 233.75 97.26 234.40 97.09
  Q 235.22 96.87 235.85 97.79
  Q 236.08 98.12 236.04 98.53
  L 235.70 101.65
  A 0.49 0.48 -86.1 0 0 236.16 102.19
  L 241.39 102.40
  A 0.60 0.60 0.0 0 0 242.01 101.80
  L 241.95 97.92
  Q 241.94 97.29 242.58 97.27
  L 243.73 97.24
  Q 244.50 97.22 244.50 97.99
  L 244.50 107.75
  A 1.21 1.20 -33.5 0 1 244.40 108.23
  Q 243.77 109.70 242.52 109.25
  Q 242.01 109.07 242.01 108.53
  L 241.99 104.94
  A 0.63 0.63 0.0 0 0 241.38 104.32
  Z"
/>
<path fill="#008efc" d="
  M 274.89 106.24
  L 274.14 109.09
  A 0.82 0.82 0.0 0 1 272.52 108.88
  L 272.49 98.02
  Q 272.49 97.35 273.15 97.21
  Q 277.38 96.37 281.10 98.35
  A 1.65 1.60 -87.2 0 1 281.84 99.19
  Q 283.22 102.71 280.62 105.25
  A 0.70 0.69 -39.4 0 0 280.53 106.14
  L 282.11 108.43
  A 0.51 0.51 0.0 0 1 281.69 109.23
  L 280.39 109.23
  A 0.80 0.79 -7.6 0 1 279.62 108.65
  Q 278.75 105.58 275.52 105.74
  A 0.68 0.68 0.0 0 0 274.89 106.24
  Z
  M 279.8177 101.2014
  A 1.56 1.56 0.0 0 0 278.3300 99.5722
  L 276.1323 99.4724
  A 1.56 1.56 0.0 0 0 274.5031 100.9600
  L 274.4423 102.2986
  A 1.56 1.56 0.0 0 0 275.9300 103.9278
  L 278.1277 104.0276
  A 1.56 1.56 0.0 0 0 279.7569 102.5400
  L 279.8177 101.2014
  Z"
/>
<rect fill="#008efc" x="291.02" y="97.03" width="2.10" height="12.18" rx="0.77"/>
<path fill="#008efc" d="
  M 305.90 97.87
  A 1.31 1.29 9.3 0 1 307.00 97.09
  Q 308.42 96.97 309.02 98.45
  Q 310.99 103.29 313.38 108.03
  A 0.89 0.89 0.0 0 1 312.28 109.26
  Q 310.84 108.73 310.62 107.21
  A 0.81 0.81 0.0 0 0 309.84 106.52
  Q 307.69 106.46 305.74 106.48
  C 303.45 106.51 304.19 107.87 303.07 108.96
  Q 302.31 109.70 301.55 109.00
  A 0.72 0.72 0.0 0 1 301.37 108.17
  L 305.90 97.87
  Z
  M 305.29 104.01
  A 0.50 0.50 0.0 0 0 305.74 104.74
  L 308.94 104.75
  A 0.50 0.50 0.0 0 0 309.38 104.02
  L 307.79 100.85
  A 0.50 0.50 0.0 0 0 306.90 100.85
  L 305.29 104.01
  Z"
/>
</svg>
